<?xml version="1.0" standalone="no"?>
<!DOCTYPE svg PUBLIC "-//W3C//DTD SVG 20010904//EN"
 "http://www.w3.org/TR/2001/REC-SVG-20010904/DTD/svg10.dtd">
<svg version="1.0" xmlns="http://www.w3.org/2000/svg"
 width="1290.000000pt" height="860.000000pt" viewBox="0 0 1290.000000 860.000000"
 preserveAspectRatio="xMidYMid meet">

<g transform="translate(0.000000,860.000000) scale(0.100000,-0.100000)"
fill="#000000" stroke="none">
<path d="M0 4300 l0 -4300 6450 0 6450 0 0 4300 0 4300 -50 0 -50 0 0 -40 0
-40 -80 0 -80 0 0 -80 c0 -64 3 -80 15 -80 11 0 15 -11 15 -40 l0 -40 42 0
c78 0 25 -21 -66 -26 -73 -4 -86 -3 -86 11 0 11 -11 15 -40 15 l-40 0 0 40 c0
29 -4 40 -15 40 -11 0 -15 11 -15 40 0 36 -2 40 -25 40 -25 0 -25 1 -25 80 l0
80 -95 0 -95 0 0 -40 c0 -29 4 -40 15 -40 11 0 15 -11 15 -40 l0 -40 40 0 40
0 0 -40 0 -40 40 0 40 0 0 -40 0 -40 40 0 40 0 0 -40 0 -40 40 0 40 0 0 -40 0
-40 40 0 40 0 0 -119 c0 -78 -4 -121 -11 -123 -7 -2 -12 -81 -16 -238 -2 -131
-8 -236 -14 -238 -5 -2 -9 -21 -9 -43 0 -28 -4 -39 -15 -39 -11 0 -15 -11 -15
-40 0 -22 -4 -40 -10 -40 -5 0 -10 -13 -10 -29 0 -16 -9 -50 -20 -76 -11 -26
-18 -50 -15 -54 2 -5 -2 -17 -10 -27 -8 -10 -15 -27 -15 -36 0 -10 -6 -18 -13
-18 -20 0 -37 -96 -37 -212 0 -109 -10 -159 -50 -243 -10 -22 -22 -50 -25 -62
-8 -29 -93 -123 -111 -123 -8 0 -14 -6 -14 -12 -1 -21 -46 -48 -100 -61 -28
-6 -50 -15 -50 -19 0 -5 -18 -8 -39 -8 -22 0 -43 -4 -46 -10 -3 -5 -37 -10
-75 -10 -38 0 -72 5 -75 10 -3 6 -25 10 -49 10 -23 0 -61 9 -84 20 -22 11 -47
20 -54 20 -7 0 -22 7 -32 15 -14 10 -22 12 -27 4 -4 -7 -15 1 -28 20 -13 18
-27 28 -36 24 -8 -3 -15 0 -15 6 0 6 -7 11 -15 11 -8 0 -24 14 -37 30 -12 17
-29 30 -38 30 -11 0 -21 14 -28 39 -7 21 -19 44 -27 51 -8 7 -15 25 -15 40 0
19 -12 41 -35 64 -25 26 -31 38 -21 43 10 6 11 41 5 163 -5 98 -5 156 1 158 6
2 10 21 10 43 0 21 5 39 10 39 6 0 10 16 10 35 0 35 19 51 21 18 0 -10 5 -4
10 12 5 17 8 45 5 63 -3 17 -1 32 5 32 5 0 9 3 9 8 0 4 -34 13 -75 19 -84 14
-131 33 -170 69 -14 13 -30 24 -35 24 -6 0 -15 9 -22 20 -18 28 -28 25 -28
-10 0 -16 -4 -30 -10 -30 -5 0 -10 14 -10 30 0 17 -4 30 -10 30 -6 0 -10 -47
-10 -120 0 -84 -3 -120 -12 -120 -21 0 1 -821 28 -997 6 -39 4 -43 -15 -43
-18 0 -21 -6 -21 -40 0 -22 -4 -40 -10 -40 -5 0 -10 -16 -10 -36 0 -19 -7 -42
-15 -50 -13 -14 -15 -13 -13 8 3 22 -1 23 -67 30 -123 11 -165 20 -165 34 0
13 -32 19 -67 15 -7 -1 -13 5 -13 14 0 11 -11 15 -40 15 -33 0 -40 3 -40 20 0
17 -7 20 -43 20 l-42 0 3 45 4 45 -40 0 -41 0 0 157 c-1 113 -5 159 -14 165
-9 6 -9 8 1 8 20 0 14 37 -8 43 -26 7 -26 27 1 34 14 4 17 8 9 13 -31 19 6 30
104 30 56 0 106 3 110 8 4 4 30 7 58 7 46 0 53 3 84 39 19 22 34 48 34 58 0
10 4 18 8 18 5 0 8 39 7 88 -1 75 -5 94 -31 142 l-29 55 -191 11 c-220 13
-252 19 -274 46 -22 27 -100 56 -139 52 -17 -2 -31 -1 -31 2 0 10 58 73 62 68
3 -2 15 29 28 70 37 120 20 207 -65 324 -51 70 -137 122 -245 147 -61 14 -180
18 -180 6 0 -15 -80 -45 -91 -34 -6 6 -30 9 -52 7 -37 -4 -39 -3 -19 7 12 7
22 16 22 21 0 4 9 8 20 8 19 0 20 7 20 120 l0 120 -39 0 c-29 0 -40 4 -44 19
-3 14 -12 18 -36 16 -17 -1 -29 1 -26 5 3 4 18 6 35 5 16 -1 30 1 30 6 0 5
-17 9 -37 10 -39 1 -38 3 10 13 34 8 35 35 3 66 -32 29 -54 20 -58 -22 -3 -33
-4 -33 -63 -38 l-60 -5 -3 -48 c-2 -30 -8 -50 -18 -54 -8 -3 -14 -18 -14 -34
0 -26 -3 -29 -32 -29 -18 0 -46 7 -63 16 -17 9 -69 18 -126 21 -94 6 -96 5
-102 -17 -3 -13 -2 -31 4 -41 5 -10 9 -29 9 -43 0 -25 -2 -26 -64 -26 -36 0
-77 5 -91 10 -20 7 -32 7 -46 -3 -27 -20 -236 8 -261 34 -21 21 -40 25 -213
39 -110 10 -133 14 -148 32 -9 11 -17 26 -17 33 0 20 -33 21 -143 8 -122 -16
-134 -22 -131 -65 2 -32 -9 -65 -20 -61 -11 5 -61 -9 -77 -20 -34 -26 -41 -61
-52 -261 -7 -141 -7 -295 0 -516 11 -332 7 -476 -14 -430 -9 18 -12 20 -12 8
-1 -14 -10 -18 -41 -18 -22 0 -40 -4 -40 -9 0 -5 -21 -12 -47 -15 -27 -3 -57
-8 -68 -10 -11 -2 -24 -5 -30 -5 -5 -1 -3 -5 5 -11 8 -5 16 -23 18 -41 2 -18
12 -39 23 -47 11 -8 19 -25 19 -43 0 -19 5 -29 15 -29 11 0 15 -11 15 -40 0
-33 -3 -40 -19 -40 -23 0 -36 -16 -21 -25 5 -3 10 -17 10 -31 0 -22 -4 -24
-50 -24 l-50 0 6 -40 7 -40 -37 0 c-31 0 -36 -3 -36 -24 0 -13 -7 -27 -16 -30
-10 -4 -14 -13 -10 -22 8 -20 -38 -66 -58 -58 -19 7 -36 -25 -36 -70 0 -29 -4
-36 -20 -36 -14 0 -20 -7 -20 -21 0 -17 -4 -20 -22 -15 -13 3 -31 6 -40 6 -10
0 -18 7 -18 15 0 11 -11 15 -40 15 -29 0 -40 4 -40 15 0 11 -11 15 -39 15 -24
0 -41 5 -44 14 -3 8 -16 16 -29 18 -13 2 -22 9 -21 16 2 6 -9 20 -25 29 -39
25 -132 122 -132 137 0 8 -7 19 -15 26 -8 7 -15 21 -15 30 0 10 -5 20 -10 22
-6 2 -12 14 -15 28 -11 52 -27 147 -32 190 -3 25 -9 49 -14 55 -5 5 -9 22 -9
37 0 16 -9 41 -20 56 -16 22 -21 45 -23 110 -1 45 -6 82 -10 82 -5 0 -6 8 -3
18 3 9 7 32 8 50 1 17 6 32 10 32 4 0 8 18 8 40 0 22 4 40 9 40 5 0 41 32 82
70 67 64 99 84 99 61 0 -15 70 -18 82 -4 6 7 17 13 24 13 10 0 14 13 14 40 0
28 4 40 14 40 8 0 16 15 20 38 14 94 19 117 28 123 5 3 11 21 13 40 3 19 9 35
15 37 5 2 10 10 10 18 0 8 8 14 19 14 24 0 45 25 47 58 1 15 2 37 3 50 1 18 7
22 31 22 l30 0 0 100 c0 99 -19 169 -46 170 -14 0 -57 50 -42 50 6 0 4 7 -5
18 -10 10 -17 27 -17 38 0 10 -9 34 -20 52 -16 26 -20 50 -20 122 0 53 -4 90
-10 90 -5 0 -9 8 -8 18 5 59 -17 89 -25 35 l-4 -28 -2 28 c-1 25 -4 27 -43 27
-36 0 -46 5 -75 40 -26 30 -42 40 -64 40 -16 0 -29 5 -29 11 0 5 -4 7 -10 4
-6 -3 -10 1 -10 9 0 12 -10 16 -38 16 -21 0 -55 9 -77 20 -22 11 -47 20 -57
20 -11 0 -30 10 -44 23 -70 62 -16 57 -564 57 l-500 0 0 -40 0 -40 40 0 40 0
0 -80 0 -80 40 0 40 0 0 -120 0 -120 43 -2 c41 -1 41 -1 6 -5 l-36 -4 -7 -152
c-3 -84 -6 -189 -6 -234 l1 -83 -40 0 -41 0 0 -40 c0 -40 0 -40 -39 -40 l-40
0 0 -111 c-1 -61 -3 -115 -7 -120 -3 -5 -39 -9 -80 -9 l-74 0 0 -40 0 -40 -40
0 c-40 0 -40 0 -40 -39 l0 -38 -80 -7 -80 -7 0 -35 c0 -33 -1 -34 -40 -34 -40
0 -40 0 -40 -40 l0 -39 -77 -3 -78 -3 -3 -77 -3 -78 -74 -1 c-41 -1 -79 -3
-85 -4 -5 -1 -26 -3 -45 -4 -33 -1 -35 -3 -35 -36 0 -33 -2 -35 -35 -35 -33 0
-35 -2 -35 -34 0 -33 2 -35 38 -38 36 -3 36 -4 -10 -8 l-48 -5 0 42 c0 42 0
43 -35 43 -34 0 -35 -1 -35 -40 0 -39 -1 -40 -35 -40 l-35 0 0 -73 c0 -82 -9
-97 -57 -97 l-33 0 0 -75 0 -75 -35 0 -35 0 0 -132 c0 -73 -3 -163 -7 -200
l-6 -68 -38 0 c-39 0 -39 0 -39 -40 l0 -40 -40 0 -40 0 0 40 0 40 -79 0 -78 0
-7 -80 -7 -80 -35 0 c-27 0 -34 4 -34 20 0 16 -7 20 -36 20 -27 0 -37 -5 -41
-20 -6 -24 -6 -24 -43 -5 -27 14 -60 12 -60 -4 0 -4 -10 -13 -22 -20 -13 -6
-36 -20 -53 -31 -16 -11 -37 -23 -45 -27 -8 -3 -17 -9 -20 -13 -3 -3 -29 -16
-59 -28 -94 -39 -208 -26 -310 33 -59 35 -154 109 -165 130 -6 11 -13 22 -16
25 -32 29 -51 308 -22 318 6 2 12 13 12 24 0 30 53 137 68 138 6 0 12 8 12 18
0 9 11 29 25 44 14 15 25 32 25 38 0 5 5 10 11 10 7 0 27 16 46 35 56 58 133
87 231 87 50 1 88 -4 95 -11 16 -16 30 -14 23 4 -3 9 0 15 9 15 8 0 15 -9 15
-19 0 -35 63 -43 80 -11 8 14 21 20 45 20 24 0 35 5 35 15 0 11 11 15 40 15
38 0 40 2 40 30 l0 30 75 0 75 0 0 75 0 75 -35 0 c-35 0 -35 0 -35 45 l0 45
-40 0 c-40 0 -40 0 -40 39 0 33 -7 45 -50 85 -39 37 -50 54 -51 79 0 23 -8 38
-30 55 -17 14 -29 18 -29 11 0 -6 -11 0 -25 15 -13 14 -22 32 -19 40 3 8 -8
23 -26 36 -17 12 -36 33 -41 46 -5 14 -26 34 -46 47 -27 15 -33 23 -21 25 13
2 7 12 -23 39 -21 19 -39 42 -39 51 0 8 -14 28 -32 44 -19 16 -26 28 -17 28 9
1 7 7 -8 19 -14 12 -23 30 -23 48 0 19 -10 38 -26 54 -22 20 -25 31 -22 71 2
34 -1 48 -9 48 -20 0 -18 156 2 164 9 3 15 19 15 41 0 19 5 35 11 35 8 0 10
16 6 53 -6 51 -6 52 26 67 18 8 33 22 33 30 1 8 2 20 3 27 0 6 14 20 30 29 17
10 28 21 25 26 -3 4 4 8 15 8 12 0 21 7 21 15 0 8 7 15 15 15 9 0 27 11 41 25
14 14 30 25 37 25 6 0 31 19 54 42 24 23 43 37 43 30 0 -7 5 -12 11 -12 5 0 7
5 4 10 -3 6 2 10 11 10 10 0 26 7 36 17 14 12 18 13 18 3 0 -8 17 3 39 24 28
27 40 34 45 24 5 -10 7 -10 12 0 3 6 11 12 19 12 7 0 18 7 25 15 9 10 16 12
20 6 3 -7 20 4 40 24 l34 35 -1075 0 -1074 0 -12 -25 c-6 -15 -9 -49 -6 -84 4
-45 2 -64 -11 -82 -10 -15 -16 -44 -16 -76 0 -29 -4 -53 -9 -53 -4 0 -11 -51
-14 -112 -6 -104 -5 -117 16 -160 12 -26 28 -47 35 -48 6 0 12 -11 12 -25 0
-14 7 -28 16 -32 12 -4 15 -20 12 -75 -1 -40 -8 -74 -15 -80 -7 -6 -10 -14 -7
-19 3 -5 -3 -9 -13 -9 -18 0 -45 -47 -47 -81 -1 -9 -6 -22 -13 -30 -6 -8 -13
-37 -15 -64 -3 -43 -6 -50 -28 -55 -31 -8 -50 -2 -50 15 0 10 -10 13 -32 10
-110 -14 -128 -14 -128 -4 0 8 -14 9 -40 5 -38 -6 -40 -5 -40 19 0 23 -4 25
-40 25 l-40 0 0 40 c0 36 -2 40 -25 40 -25 0 -25 1 -25 80 0 64 -3 80 -15 80
-12 0 -15 20 -15 120 0 113 -1 120 -20 120 -17 0 -20 7 -20 40 0 22 -5 40 -11
40 -7 0 -10 20 -7 57 3 52 1 58 -22 70 -13 6 -28 21 -32 33 -4 11 -16 23 -25
27 -10 4 -33 22 -52 40 -18 18 -42 35 -52 38 -21 7 -49 54 -49 83 0 10 -6 24
-12 31 -10 11 -10 14 0 18 7 3 12 22 12 44 l0 39 -415 0 -415 0 0 -4300z
m6800 4110 c0 -5 -2 -10 -4 -10 -3 0 -8 5 -11 10 -3 6 -1 10 4 10 6 0 11 -4
11 -10z m-5753 -272 c-2 -13 -4 -3 -4 22 0 25 2 35 4 23 2 -13 2 -33 0 -45z
m8470 -245 c-3 -10 -5 -4 -5 12 0 17 2 24 5 18 2 -7 2 -21 0 -30z m3143 -53
c0 -22 -4 -40 -10 -40 -5 0 -10 18 -10 40 0 22 5 40 10 40 6 0 10 -18 10 -40z
m-3140 -10 c0 -5 -5 -10 -11 -10 -5 0 -7 5 -4 10 3 6 8 10 11 10 2 0 4 -4 4
-10z m-13 -56 c-3 -3 -12 -4 -19 -1 -8 3 -5 6 6 6 11 1 17 -2 13 -5z m96 -48
c4 -10 1 -13 -8 -9 -8 3 -12 9 -9 14 7 12 11 11 17 -5z m3034 -68 c-2 -13 -4
-3 -4 22 0 25 2 35 4 23 2 -13 2 -33 0 -45z m-2727 34 c100 -16 209 -134 223
-241 7 -53 -26 -146 -59 -168 -13 -8 -26 -28 -29 -44 -5 -23 -12 -29 -33 -29
-21 0 -24 -3 -12 -10 8 -5 12 -12 8 -15 -3 -3 -90 -1 -192 6 -191 13 -194 13
-187 52 1 5 2 83 3 175 1 172 11 234 34 225 8 -3 18 5 24 21 5 14 20 28 32 31
33 7 120 12 138 7 8 -2 31 -6 50 -10z m-1588 -134 c-9 -9 -15 -9 -24 0 -9 9
-7 12 12 12 19 0 21 -3 12 -12z m-1282 -28 c0 -5 -4 -10 -10 -10 -5 0 -10 5
-10 10 0 6 5 10 10 10 6 0 10 -4 10 -10z m1237 -19 c13 -26 2 -61 -19 -61 -31
0 -63 62 -43 82 14 14 51 1 62 -21z m726 -61 c31 -25 82 -36 91 -21 15 23 80
9 114 -25 41 -41 54 -141 26 -200 -54 -113 -175 -70 -193 69 -6 40 -8 42 -41
44 -19 1 -28 0 -20 -4 24 -9 38 -32 33 -53 -4 -15 -14 -20 -39 -20 -28 0 -35
4 -40 27 -5 19 -2 30 11 40 18 12 18 13 -2 13 -17 0 -21 8 -27 61 -7 68 2 89
39 89 12 0 34 -9 48 -20z m-538 -182 c-16 -46 -24 -58 -41 -58 -15 0 -24 8
-28 25 -7 28 -43 68 -68 78 -10 3 -18 16 -18 28 0 20 4 21 55 17 39 -3 56 -1
59 9 3 7 15 13 26 13 11 0 21 6 21 13 1 6 5 -6 8 -28 5 -28 0 -57 -14 -97z
m2638 55 c-7 -2 -21 -2 -30 0 -10 3 -4 5 12 5 17 0 24 -2 18 -5z m204 -79 c-3
-3 -12 -4 -19 -1 -8 3 -5 6 6 6 11 1 17 -2 13 -5z m-2542 -20 c84 -5 115 -15
115 -35 0 -16 -58 -10 -64 7 -3 8 -11 12 -17 8 -10 -6 -180 -7 -249 -1 -15 1
-26 9 -28 20 -4 17 2 18 75 13 43 -4 118 -9 168 -12z m235 -14 c23 -23 25 -40
8 -63 -12 -14 -17 -14 -45 -2 -27 11 -33 20 -33 44 0 27 8 34 43 40 4 0 16 -8
27 -19z m10 -116 c12 -30 4 -51 -21 -59 -30 -10 -59 12 -59 45 0 51 62 62 80
14z m1170 -64 c0 -5 -4 -10 -10 -10 -5 0 -10 5 -10 10 0 6 5 10 10 10 6 0 10
-4 10 -10z m537 -36 c-3 -3 -12 -4 -19 -1 -8 3 -5 6 6 6 11 1 17 -2 13 -5z
m-2241 -147 c4 -4 6 -33 5 -64 -1 -31 -3 -33 -40 -33 -60 0 -71 7 -71 49 0 50
16 64 65 56 21 -3 40 -7 41 -8z m-183 -34 c9 -50 -20 -75 -67 -57 -11 4 -16
19 -16 45 0 39 0 39 39 39 34 0 39 -3 44 -27z m-3656 -35 c-2 -13 -4 -5 -4 17
-1 22 1 32 4 23 2 -10 2 -28 0 -40z m4128 42 c17 -7 15 -9 -12 -9 -18 -1 -33
4 -33 9 0 12 17 12 45 0z m158 -7 c-23 -2 -64 -2 -90 0 -26 2 -7 3 42 3 50 0
71 -1 48 -3z m-5429 -228 c-5 -11 -11 -12 -25 -4 -26 13 -24 19 6 19 17 0 23
-4 19 -15z m6419 -2 c-7 -2 -19 -2 -25 0 -7 3 -2 5 12 5 14 0 19 -2 13 -5z
m407 -3 c0 -5 -18 -10 -41 -10 -22 0 -38 -4 -35 -9 3 -5 25 -5 48 0 58 11 58
11 58 -6 0 -22 -105 -21 -114 1 -3 9 -4 20 0 25 7 12 84 11 84 -1z m-162 -44
c2 -3 -24 -5 -60 -5 -35 0 -80 -2 -101 -6 l-37 -7 0 -119 c0 -100 2 -119 15
-119 12 0 15 -12 14 -58 -2 -62 7 -102 22 -102 6 0 7 -5 2 -12 -4 -7 -8 -50
-8 -95 0 -45 -3 -84 -7 -88 -3 -4 -16 3 -27 14 -18 18 -33 21 -100 21 l-78 0
1 98 1 97 44 5 45 5 1 70 c7 300 7 300 24 307 18 7 241 1 249 -6z m49 8 c-3
-3 -12 -4 -19 -1 -8 3 -5 6 6 6 11 1 17 -2 13 -5z m-5839 -31 c-34 -4 -37 -7
-41 -41 l-4 -37 -1 43 -2 42 43 -2 42 -1 -37 -4z m3492 -89 c0 -19 8 -28 34
-39 35 -15 91 -11 102 6 3 5 41 9 85 9 64 0 79 3 79 15 0 21 92 24 425 11 281
-10 293 -13 293 -69 0 -15 2 -30 5 -33 2 -3 32 -5 65 -5 53 -1 61 -3 71 -25 6
-14 11 -31 11 -38 0 -10 29 -15 111 -18 100 -5 113 -8 137 -30 15 -14 34 -28
43 -31 12 -4 18 -20 20 -57 2 -28 2 -54 0 -56 -2 -2 -24 -4 -47 -4 l-43 0 -3
43 -3 42 -160 3 c-203 3 -205 3 -205 -48 0 -27 -4 -40 -13 -40 -8 0 -19 -10
-25 -22 l-11 -23 0 22 c-1 26 -13 35 -36 26 -23 -8 -65 -104 -72 -164 -5 -44
-8 -47 -45 -58 -22 -7 -57 -28 -79 -48 -46 -42 -114 -131 -106 -140 4 -3 -2
-22 -12 -42 -10 -20 -22 -58 -26 -86 -6 -45 -8 -48 -21 -31 -8 11 -17 17 -20
13 -3 -3 -18 -1 -33 4 -39 16 -246 28 -326 20 -69 -8 -135 6 -135 28 0 5 -18
16 -40 25 -22 9 -40 19 -40 23 0 9 -70 33 -95 33 -8 0 -15 3 -15 8 0 4 -20 18
-45 32 -56 30 -61 45 -30 76 13 13 32 47 42 74 10 28 21 50 25 50 4 0 10 16
14 36 5 25 9 32 15 22 7 -10 9 -9 9 5 0 9 -7 17 -16 17 -13 0 -15 12 -12 80 2
62 0 80 -11 80 -9 0 -12 11 -9 40 2 22 0 40 -4 40 -5 0 -8 18 -8 40 0 22 -4
40 -10 40 -5 0 -10 7 -10 16 0 14 7 15 37 11 21 -4 39 -11 41 -17 6 -16 43
-12 64 7 17 15 18 14 18 -15 0 -30 19 -47 21 -19 3 37 -4 92 -12 95 -5 2 -9
21 -9 43 0 24 -5 39 -12 39 -9 0 -8 3 2 9 20 13 30 4 30 -25z m1914 -285 c-1
-13 -2 -50 -3 -81 -1 -52 -3 -58 -22 -58 -21 0 -21 4 -17 73 3 41 8 79 12 86
12 19 31 7 30 -20z m-4024 -19 c-11 -8 -8 -9 12 -4 19 4 35 -1 58 -18 17 -12
46 -23 63 -24 18 -1 51 -2 75 -3 30 -1 42 -5 42 -16 0 -11 11 -15 40 -15 27 0
40 -4 40 -14 0 -9 13 -13 46 -12 37 1 50 -3 65 -22 10 -13 16 -29 13 -36 -6
-16 21 -40 35 -31 14 8 52 -32 45 -49 -3 -8 -1 -17 5 -21 16 -9 13 -41 -4 -58
-13 -13 -13 -16 1 -21 9 -3 30 -6 47 -7 18 0 41 -4 52 -9 16 -7 -276 -15 -355
-10 -8 1 -141 5 -295 10 -253 7 -419 15 -530 25 -22 2 -65 4 -95 5 -42 0 -51
3 -37 11 9 5 17 22 17 37 0 47 10 68 41 86 21 12 28 23 24 36 -4 14 4 21 35
34 22 9 40 20 40 26 0 11 42 34 102 54 24 8 108 22 188 31 80 9 150 18 155 20
6 2 28 4 50 4 30 1 36 -2 25 -9z m4327 -36 c-3 -3 -12 -4 -19 -1 -8 3 -5 6 6
6 11 1 17 -2 13 -5z m392 -10 c2 -2 -12 -4 -32 -4 -20 0 -37 4 -37 10 0 8 58
3 69 -6z m124 -41 c-7 -2 -19 -2 -25 0 -7 3 -2 5 12 5 14 0 19 -2 13 -5z m-18
-41 c-3 -3 -11 0 -18 7 -9 10 -8 11 6 5 10 -3 15 -9 12 -12z m65 -16 c0 -17
22 -26 48 -19 11 2 23 0 26 -6 5 -7 0 -9 -11 -5 -16 4 -15 3 1 -8 30 -20 116
-110 116 -122 0 -2 16 -30 35 -62 46 -76 45 -90 -2 -28 -70 92 -205 234 -223
234 -5 0 -10 7 -10 15 0 8 5 15 10 15 6 0 10 -6 10 -14z m-990 -40 c0 -8 8
-17 18 -19 10 -3 6 -5 -11 -6 -17 -1 -26 3 -22 9 3 6 1 10 -4 10 -6 0 -11 5
-11 10 0 6 7 10 15 10 8 0 15 -6 15 -14z m-5692 -53 c-21 -2 -55 -2 -75 0 -21
2 -4 4 37 4 41 0 58 -2 38 -4z m2430 -46 c6 -19 -1 -25 -33 -24 -33 1 -45 14
-28 31 9 8 57 3 61 -7z m-33 -47 c-27 -12 -35 -12 -35 0 0 6 12 10 28 9 24 0
25 -1 7 -9z m525 -30 c0 -36 -3 -40 -24 -40 -44 0 -56 10 -56 46 0 33 1 34 40
34 l40 0 0 -40z m-2546 -29 c3 -5 -1 -11 -9 -14 -9 -4 -12 -1 -8 9 6 16 10 17
17 5z m3152 -42 c24 -6 44 -14 44 -18 0 -3 -19 -7 -42 -9 -23 -1 -45 -6 -48
-10 -3 -4 -36 -15 -75 -25 -102 -27 -187 -79 -274 -167 -82 -83 -125 -131
-126 -142 0 -3 -4 -10 -9 -15 -5 -5 -6 -3 -2 5 6 11 -5 17 -26 13 -20 -3 8 67
51 131 124 182 334 280 507 237z m2362 -54 c-3 -3 -9 2 -12 12 -6 14 -5 15 5
6 7 -7 10 -15 7 -18z m1167 -5 c43 -12 112 -46 133 -66 15 -16 1 -26 -18 -13
-31 19 -43 11 -37 -27 7 -44 15 -53 27 -34 5 8 12 11 17 7 4 -5 2 -12 -5 -16
-10 -6 -9 -17 3 -50 16 -47 19 -93 8 -156 -6 -36 -7 -38 -14 -15 -5 19 -7 15
-8 -22 -1 -25 -6 -48 -13 -50 -9 -3 -9 -12 0 -38 7 -18 11 -60 11 -94 l-2 -61
-7 45 c-4 25 -14 63 -22 85 -8 22 -18 58 -22 80 -12 66 -80 287 -96 310 -4 6
-10 19 -12 30 -3 11 -13 37 -22 58 l-16 37 27 0 c16 0 46 -5 68 -10z m-398
-22 c-3 -8 -6 -5 -6 6 -1 11 2 17 5 13 3 -3 4 -12 1 -19z m-2951 -1 c11 -11
-15 -27 -43 -27 -13 0 -23 -4 -23 -8 0 -4 -17 -13 -37 -19 -83 -24 -145 -51
-164 -72 -12 -12 -27 -20 -35 -17 -7 3 -16 1 -19 -4 -10 -16 -25 -11 -19 5 4
8 17 15 30 15 16 0 22 4 18 15 -7 18 32 75 52 75 8 0 14 5 14 10 0 6 11 10 24
10 13 0 28 6 34 13 12 14 155 17 168 4z m3194 -33 c0 -8 -4 -14 -10 -14 -5 0
-10 -9 -10 -20 0 -11 -11 -27 -24 -36 -15 -9 -22 -21 -19 -30 3 -8 0 -14 -6
-14 -6 0 -18 -11 -27 -25 -15 -23 -15 -26 5 -53 20 -29 20 -29 1 -49 -20 -23
-17 -33 12 -33 14 0 18 8 18 41 l0 41 28 -29 c16 -15 32 -37 37 -48 8 -19 9
-19 13 4 2 15 -5 32 -22 50 -14 15 -26 32 -26 39 0 7 -6 12 -12 13 -8 0 -7 3
2 6 8 3 23 12 32 21 20 17 24 11 32 -48 2 -19 3 3 1 49 -1 48 1 77 6 70 5 -8
6 -22 3 -33 -4 -11 -2 -16 4 -12 14 8 25 -25 12 -38 -16 -16 -12 -29 9 -23 16
4 18 1 11 -23 -4 -15 -12 -36 -18 -47 -9 -16 -6 -22 19 -38 24 -17 29 -27 29
-62 0 -23 3 -50 7 -60 6 -15 4 -16 -9 -5 -13 10 -17 10 -21 -2 -4 -9 -1 -13 6
-10 8 3 13 -9 13 -35 l1 -40 -26 31 c-14 17 -37 41 -50 53 -55 53 -81 84 -81
95 0 6 -8 10 -19 10 -10 0 -24 7 -31 15 -7 8 -21 15 -31 15 -11 0 -19 5 -19
10 0 6 -4 10 -10 10 -5 0 -28 18 -52 40 -24 22 -46 40 -50 40 -5 0 -8 5 -8 10
0 22 30 8 78 -35 l50 -45 7 62 c7 64 16 78 106 180 24 27 39 28 39 2z m-5796
-80 c33 -33 4 -79 -42 -67 -32 7 -42 20 -35 42 16 43 49 54 77 25z m266 -13
c17 -32 12 -61 -9 -61 -14 0 -20 9 -23 35 -6 49 12 63 32 26z m70 -27 c0 -27
-4 -34 -20 -34 -11 0 -20 4 -20 9 0 5 -3 16 -6 24 -6 17 23 50 37 42 5 -4 9
-22 9 -41z m261 11 c30 -52 25 -65 -25 -65 -49 0 -56 9 -56 66 0 34 2 35 32
32 23 -2 36 -11 49 -33z m226 -16 c14 -27 3 -45 -21 -36 -20 8 -23 71 -3 65 6
-3 17 -15 24 -29z m81 -8 c3 -30 2 -32 -25 -29 -24 2 -27 7 -24 28 7 50 44 51
49 1z m3712 24 c0 -16 -27 -32 -36 -22 -7 6 17 36 29 37 4 0 7 -7 7 -15z
m-3432 -7 c7 -7 12 -23 12 -36 0 -20 -4 -23 -32 -20 -27 2 -34 8 -36 30 -3 25
2 29 39 37 3 0 10 -4 17 -11z m-84 -14 c9 -22 8 -24 -9 -24 -8 0 -15 9 -15 20
0 24 15 27 24 4z m-1284 -15 c0 -8 5 -8 15 1 26 21 45 4 45 -40 0 -43 2 -42
-70 -44 -34 -1 -35 1 -38 41 -2 33 1 42 15 46 30 8 33 7 33 -4z m1624 -11 c22
-30 20 -60 -4 -86 -25 -26 -85 -30 -117 -7 -21 15 -22 14 -28 -22 -3 -21 -8
-46 -10 -55 -2 -10 1 -21 6 -24 6 -3 7 -15 3 -26 -9 -29 -11 -103 -3 -178 8
-87 -3 -125 -41 -138 -37 -13 -97 4 -103 29 -9 33 -30 22 -24 -11 4 -19 0 -40
-10 -59 -15 -26 -21 -28 -57 -23 -51 7 -60 17 -65 72 -9 115 -45 51 -41 -73 1
-35 -2 -47 -11 -42 -8 5 -9 1 -5 -12 4 -11 2 -33 -4 -47 -8 -21 -7 -31 4 -42
9 -9 17 -10 21 -4 3 5 1 10 -4 10 -6 0 -11 10 -11 22 0 22 1 22 27 -6 32 -35
22 -59 -26 -64 -27 -3 -31 0 -31 22 0 14 -4 26 -10 26 -5 0 -10 7 -10 15 0 19
-43 40 -66 31 -13 -5 -15 -14 -10 -38 8 -38 23 -58 46 -58 10 0 23 -7 30 -15
9 -10 9 -15 1 -15 -6 0 -11 -9 -11 -19 0 -26 -15 -34 -70 -41 -36 -4 -47 -10
-58 -32 -16 -34 -39 -36 -52 -5 l-9 22 0 -22 c-1 -16 -7 -23 -20 -23 -11 0
-23 -4 -26 -10 -3 -5 -15 -10 -26 -10 -10 0 -19 -4 -19 -10 0 -5 3 -10 8 -10
11 0 34 -58 27 -70 -3 -5 -2 -10 3 -10 17 0 24 -68 10 -97 -10 -22 -20 -27
-48 -28 -29 0 -36 -4 -38 -23 -3 -22 -35 -42 -68 -42 -22 0 -17 47 7 71 15 15
24 18 32 10 20 -20 27 -12 27 29 0 22 -4 40 -10 40 -5 0 -10 -9 -10 -20 0 -36
-35 -24 -50 18 -8 20 -13 43 -12 50 2 6 -2 12 -8 12 -5 0 -10 8 -9 18 0 10 3
12 6 5 7 -19 20 -15 26 8 3 11 16 23 28 26 22 6 22 7 3 14 -10 4 -38 8 -62 8
-58 1 -82 15 -82 49 0 58 14 64 140 59 63 -2 131 -7 151 -10 35 -7 37 -6 42
26 3 17 1 36 -3 41 -9 9 -87 -2 -95 -14 -3 -5 -18 -3 -34 3 -23 8 -36 8 -55
-2 -15 -8 -36 -11 -53 -7 -15 4 -46 10 -68 14 -26 5 -40 12 -40 22 0 10 14 17
40 21 30 4 36 7 23 13 -23 10 -23 44 -1 68 22 24 164 28 143 3 -7 -8 -11 -15
-9 -16 2 0 23 -2 46 -4 45 -3 67 10 36 22 -10 4 -20 9 -23 12 -12 14 -86 42
-124 47 -43 6 -71 -6 -148 -66 -30 -23 -48 -73 -48 -132 0 -20 -4 -40 -10 -43
-5 -3 -10 -14 -10 -23 -1 -9 -7 -30 -14 -47 l-13 -30 -15 29 c-14 26 -14 34
-1 65 14 32 13 49 -4 141 -1 8 -10 41 -18 73 -14 51 -14 59 -1 72 24 24 64 35
130 35 34 0 70 6 79 13 17 12 17 15 0 60 -19 52 -12 79 23 85 30 6 36 16 39
73 2 30 7 74 10 97 7 39 5 44 -11 40 -40 -8 -100 87 -71 110 21 17 99 21 190
11 72 -8 92 -8 98 3 6 10 47 12 176 11 190 -3 286 -11 277 -24 -3 -5 2 -9 10
-9 9 0 16 6 16 13 0 10 15 11 60 7 58 -6 60 -5 71 22 19 46 107 63 133 26z
m4296 -8 c0 -5 -4 -10 -10 -10 -5 0 -10 5 -10 10 0 6 5 10 10 10 6 0 10 -4 10
-10z m988 -36 c29 -14 52 -32 52 -39 0 -7 8 -15 18 -17 10 -3 34 -34 52 -69
33 -60 34 -69 33 -156 -1 -83 -4 -97 -31 -145 -35 -61 -63 -88 -123 -118 -123
-63 -284 12 -340 158 -25 66 -37 186 -20 196 6 4 11 16 11 27 0 51 69 141 132
172 53 27 153 22 216 -9z m-6445 -4 c10 0 17 -8 17 -20 0 -13 7 -20 20 -20 11
0 20 -7 20 -16 0 -8 5 -25 12 -37 25 -47 -4 -197 -39 -197 -7 0 -13 -9 -13
-20 0 -11 -3 -19 -7 -18 -9 2 -65 -23 -73 -33 -3 -3 -12 -8 -20 -12 -8 -4 -23
-13 -33 -19 -12 -9 -20 -10 -25 -2 -4 5 -23 10 -42 10 -28 -1 -36 3 -38 20 -2
12 -14 27 -28 35 -37 19 -84 88 -84 123 0 39 21 96 35 96 7 0 20 9 30 20 10
11 24 20 32 20 7 0 13 5 13 10 0 6 7 10 15 10 8 0 15 3 15 8 0 23 106 54 155
46 11 -2 28 -4 38 -4z m4334 4 c-3 -3 -12 -4 -19 -1 -8 3 -5 6 6 6 11 1 17 -2
13 -5z m-4230 -126 c-3 -8 -6 -5 -6 6 -1 11 2 17 5 13 3 -3 4 -12 1 -19z
m5550 -115 c-5 -47 -3 -64 8 -73 23 -19 18 -30 -15 -30 l-31 0 7 63 c4 34 11
65 16 68 5 3 6 19 3 35 -14 63 -14 68 1 34 12 -26 15 -51 11 -97z m-4482 13
c23 -35 12 -74 -23 -87 -30 -12 -99 -4 -119 13 -12 10 -19 79 -9 89 3 2 34 6
70 7 60 3 66 1 81 -22z m-4515 -36 c0 -6 45 -10 114 -10 66 0 117 -4 121 -10
4 -6 -10 -10 -34 -10 l-41 0 0 -40 0 -40 -80 0 c-67 0 -80 -3 -80 -16 0 -14
-11 -16 -76 -12 -52 2 -78 8 -85 18 -10 15 -5 101 6 120 8 13 155 13 155 0z
m9020 -21 c0 -5 -4 -9 -8 -9 -5 0 -9 7 -9 15 0 8 4 12 9 9 4 -3 8 -9 8 -15z
m-5959 -131 c32 -9 41 -17 48 -46 12 -40 4 -87 -15 -103 -8 -7 -32 -15 -55
-19 -34 -6 -42 -4 -54 14 -16 22 -19 67 -9 129 7 42 19 45 85 25z m-115 -28
c6 -6 8 -27 5 -48 -6 -36 -7 -37 -54 -40 l-47 -3 0 50 0 51 43 0 c24 0 48 -5
53 -10z m1553 -37 c27 -21 39 -67 22 -92 -5 -8 -28 -14 -56 -15 -39 -1 -50 3
-71 27 -23 27 -33 85 -16 101 12 13 93 -1 121 -21z m4635 -84 c-8 -14 -24 8
-24 36 0 18 1 18 16 -3 8 -12 12 -27 8 -33z m-4832 -73 c10 -11 18 -33 18 -48
0 -22 -7 -31 -36 -43 -51 -21 -73 -19 -86 10 l-11 25 -24 -22 -24 -23 -19 25
c-11 14 -20 34 -20 44 0 44 59 73 88 44 9 -9 15 -10 20 -2 19 29 67 24 94 -10z
m5904 -43 c15 -20 30 -31 32 -25 2 7 7 12 12 12 11 0 35 -62 32 -82 -2 -9 6
-22 17 -28 18 -9 21 -20 21 -70 0 -39 -4 -60 -12 -60 -6 0 -8 -3 -5 -6 8 -8
-73 -74 -91 -74 -7 0 -31 -18 -53 -40 -22 -22 -44 -40 -49 -40 -5 0 -11 -6
-13 -12 -4 -10 -8 -9 -16 2 -5 8 -11 12 -13 10 -11 -15 -28 -64 -28 -80 0 -11
-9 -24 -20 -30 -11 -6 -20 -20 -20 -30 0 -13 -7 -20 -20 -20 -11 0 -19 6 -18
12 2 7 -11 19 -29 27 -31 14 -40 26 -63 89 -7 17 -16 32 -21 32 -5 0 -9 13 -9
29 0 16 -6 34 -14 40 -9 8 -13 28 -11 59 l3 47 54 5 c93 10 156 55 188 137 21
51 89 133 111 133 4 0 19 -17 35 -37z m-7021 -52 c0 -8 -8 -19 -17 -25 -22
-13 -44 5 -34 29 7 20 51 16 51 -4z m1159 -7 c7 -18 -23 -74 -39 -74 -14 0
-35 21 -35 35 0 16 38 55 54 55 8 0 17 -7 20 -16z m4433 -26 c-3 -8 -6 -5 -6
6 -1 11 2 17 5 13 3 -3 4 -12 1 -19z m-4292 -66 c34 -18 57 -49 53 -74 -4 -27
-67 -53 -106 -43 -62 16 -95 98 -51 128 21 15 65 11 104 -11z m-1477 -115 c0
-34 0 -99 0 -144 2 -69 4 -81 17 -77 17 7 22 -31 5 -41 -5 -3 -10 -2 -10 4 0
6 -6 8 -14 5 -11 -4 -15 24 -21 150 -4 85 -4 159 0 165 14 24 25 -3 23 -62z
m69 53 c4 -21 -9 -37 -32 -42 -15 -2 -21 3 -23 21 -6 37 49 58 55 21z m-129
-51 c-1 -47 -3 -50 -24 -45 -13 4 -26 2 -29 -4 -11 -17 -22 -11 -27 14 -6 29
5 51 21 42 6 -4 13 4 17 19 4 15 13 25 25 25 15 0 18 -8 17 -51z m5932 21 c0
-5 -9 -10 -21 -10 -11 0 -17 5 -14 10 3 6 13 10 21 10 8 0 14 -4 14 -10z m113
-7 c-7 -2 -19 -2 -25 0 -7 3 -2 5 12 5 14 0 19 -2 13 -5z m-139 -51 c6 -18 15
-30 19 -26 4 4 7 2 7 -5 0 -6 -11 -16 -25 -21 -14 -5 -25 -13 -25 -18 0 -4 -8
-17 -18 -28 -9 -10 -23 -32 -31 -49 l-14 -30 -8 40 c-11 56 -11 105 0 105 5 0
11 -8 14 -17 2 -11 7 -1 12 22 14 73 49 87 69 27z m-5530 2 c12 -32 7 -84 -9
-84 -21 0 -28 23 -21 65 7 37 20 45 30 19z m1193 -146 c6 -7 13 -25 17 -40 10
-43 -22 -68 -84 -68 -42 0 -52 4 -66 25 -16 24 -13 56 8 83 6 7 33 12 63 12
30 0 57 -5 62 -12z m4363 -14 c0 -8 -5 -12 -10 -9 -6 4 -8 11 -5 16 9 14 15
11 15 -7z m-5529 -23 c13 -10 47 -21 76 -25 73 -9 113 -25 113 -44 -1 -29 -23
-47 -88 -71 -34 -13 -65 -28 -68 -32 -3 -5 -16 -9 -29 -9 -13 0 -30 -7 -38
-15 -19 -19 -274 -32 -297 -15 -13 9 -13 12 3 21 9 5 17 17 17 24 0 11 12 15
40 15 22 0 40 4 40 10 0 5 17 12 38 16 48 9 83 36 71 55 -14 23 -11 38 16 64
29 30 73 32 106 6z m5428 -18 c0 -5 -4 -17 -9 -28 -8 -18 -9 -17 -9 8 -1 15 4
27 9 27 6 0 10 -3 9 -7z m-5175 -128 c6 -30 11 -35 34 -35 53 0 1 -17 -56 -18
-32 -1 -84 -4 -118 -8 -56 -6 -62 -4 -67 15 -4 16 0 21 13 21 10 0 20 -6 23
-12 3 -10 9 -10 26 0 11 6 30 12 41 12 11 0 20 5 20 10 0 6 7 10 15 10 8 0 19
9 25 20 16 31 37 24 44 -15z m5217 -28 c10 -3 19 -10 19 -16 0 -12 -40 -16
-40 -3 0 4 -2 16 -4 27 -2 11 -1 15 1 9 2 -7 13 -14 24 -17z m-5791 13 c0 -5
-5 -10 -11 -10 -5 0 -7 5 -4 10 3 6 8 10 11 10 2 0 4 -4 4 -10z m770 -20 c0
-5 -4 -10 -10 -10 -5 0 -10 5 -10 10 0 6 5 10 10 10 6 0 10 -4 10 -10z m266
-71 c0 -30 3 -61 5 -69 8 -29 -37 -22 -65 10 -14 17 -26 35 -26 38 0 16 63 83
74 79 6 -2 11 -27 12 -58z m-283 -1 c40 -54 2 -101 -84 -102 -59 -1 -79 16
-79 65 0 51 28 71 94 67 40 -2 53 -8 69 -30z m-337 5 c7 -10 14 -37 14 -60 0
-38 -3 -43 -27 -49 -33 -9 -53 15 -53 62 0 23 7 38 22 48 28 20 28 20 44 -1z
m-489 -30 c5 -10 8 -25 7 -33 -1 -8 -2 -23 -3 -33 -1 -15 -9 -18 -53 -15 l-53
3 0 40 c0 39 1 40 40 46 22 3 43 7 47 8 4 0 11 -7 15 -16z m118 -23 c9 -28
-13 -52 -44 -48 -22 3 -26 9 -29 40 -2 28 1 37 15 40 25 6 50 -8 58 -32z
m5775 -20 c0 -5 -7 -10 -16 -10 -8 0 -12 5 -9 10 3 6 10 10 16 10 5 0 9 -4 9
-10z m-2370 -47 c0 -9 -12 -13 -37 -11 -67 4 -123 -2 -123 -12 0 -5 19 -11 43
-12 l42 -1 -42 -4 c-50 -5 -53 -14 -17 -42 15 -12 23 -21 18 -21 -5 0 -3 -4 5
-9 9 -6 4 -10 -18 -13 -21 -3 -31 0 -31 8 0 22 -58 58 -93 58 -20 1 -31 6 -29
14 1 7 -5 15 -14 19 -29 11 8 23 74 23 34 0 62 4 62 10 0 5 35 8 80 7 58 -1
80 -5 80 -14z m4 -42 c3 -4 -6 -6 -19 -3 -14 2 -25 6 -25 8 0 8 39 4 44 -5z
m-130 -27 c3 -8 2 -12 -4 -9 -6 3 -10 10 -10 16 0 14 7 11 14 -7z m140 -39 c5
-29 4 -36 -3 -25 -6 8 -11 28 -11 44 0 39 6 31 14 -19z m-1699 3 c-5 -19 -4
-20 4 -7 9 14 32 17 131 18 67 1 127 4 135 7 17 7 67 -25 59 -37 -12 -20 57
-36 133 -31 56 4 88 0 129 -14 30 -10 54 -22 54 -26 0 -4 10 -8 22 -8 12 0 30
-7 40 -17 17 -15 18 -15 18 0 0 10 -7 17 -15 17 -8 0 -15 4 -15 9 0 5 7 11 15
15 9 3 15 18 15 36 0 30 1 31 33 25 41 -9 47 -13 47 -30 0 -7 17 -22 38 -32
33 -16 37 -23 40 -60 l3 -43 -40 0 c-30 0 -41 4 -41 15 0 11 -11 15 -40 15
-41 0 -57 -21 -25 -34 8 -3 15 -15 15 -26 0 -12 5 -31 11 -42 11 -21 12 -21
24 8 12 26 13 27 14 7 1 -20 6 -23 41 -23 22 0 40 -4 40 -9 0 -5 -18 -12 -40
-16 -34 -6 -40 -11 -40 -31 0 -13 -4 -24 -10 -24 -5 0 -10 -14 -10 -30 0 -17
-6 -43 -14 -58 -14 -26 -84 -72 -111 -72 -9 0 -13 -11 -13 -31 1 -38 -14 -49
-68 -49 -33 0 -43 4 -47 20 -3 11 -12 20 -21 20 -9 0 -33 18 -52 39 -33 35
-40 38 -75 34 -26 -4 -52 1 -81 15 -40 18 -49 19 -126 8 -45 -7 -85 -10 -88
-7 -8 9 -97 30 -125 31 -15 0 -32 6 -38 14 -21 25 -161 49 -161 27 0 -4 -12
-8 -27 -8 -16 0 -44 -4 -63 -9 -19 -5 -71 -8 -115 -8 -107 2 -158 27 -220 109
-27 36 -54 102 -55 132 0 12 11 14 335 38 291 22 305 26 346 108 21 41 44 51
34 15z m1745 -140 c0 -5 -4 -8 -10 -8 -5 0 -10 10 -10 23 0 18 2 19 10 7 5 -8
10 -18 10 -22z m30 -48 c0 -5 -2 -10 -4 -10 -3 0 -8 5 -11 10 -3 6 -1 10 4 10
6 0 11 -4 11 -10z m2070 -105 c0 -8 -7 -15 -15 -15 -8 0 -15 7 -15 15 0 8 7
15 15 15 8 0 15 -7 15 -15z m50 6 c0 -14 -18 -23 -30 -16 -6 4 -8 11 -5 16 8
12 35 12 35 0z m-3533 -270 c26 -10 65 -21 86 -25 20 -4 37 -12 37 -17 0 -6 7
-17 15 -25 8 -9 15 -26 15 -39 0 -35 10 -55 29 -55 10 0 21 -15 29 -40 17 -57
16 -60 -23 -60 -41 0 -44 -11 -11 -37 19 -15 24 -31 28 -81 2 -34 1 -57 -3
-50 -5 8 -16 3 -37 -18 -91 -91 -125 -113 -169 -114 -18 0 -33 -5 -33 -11 0
-13 -152 -2 -160 12 -3 4 -24 16 -45 25 -22 9 -64 41 -92 71 l-53 55 0 74 c0
59 3 74 15 74 9 0 15 9 15 24 0 13 7 29 15 36 8 7 12 16 9 21 -7 12 61 79 80
79 9 0 20 9 26 19 5 11 19 23 30 26 20 6 28 35 10 35 -14 0 -12 27 3 33 31 13
139 6 184 -12z m1803 -406 c0 -8 -9 -15 -20 -15 -20 0 -26 11 -13 23 12 13 33
7 33 -8z m163 -31 c11 -11 -3 -24 -18 -18 -8 4 -12 10 -9 15 6 11 18 12 27 3z
m1094 -35 l28 -11 -25 -13 c-34 -19 -65 -18 -108 2 l-37 18 30 6 c48 10 82 10
112 -2z m-197 -37 c3 -4 19 -18 35 -31 21 -17 24 -22 10 -18 -11 3 -39 11 -61
16 -29 8 -43 18 -47 32 -5 19 -3 21 26 15 17 -3 33 -10 37 -14z m220 -27 c0
-9 -6 -12 -15 -9 -8 4 -15 10 -15 15 0 5 7 9 15 9 8 0 15 -7 15 -15z m-1792
-19 c-7 -8 -15 -12 -17 -11 -5 6 10 25 20 25 5 0 4 -6 -3 -14z m-6206 -245
c29 -17 46 -31 38 -31 -9 0 -21 5 -28 12 -18 18 -81 40 -142 49 l-55 8 67 -3
c53 -3 78 -10 120 -35z m-212 15 c0 -2 -9 -6 -20 -9 -11 -3 -18 -1 -14 4 5 9
34 13 34 5z m318 -105 c12 -10 22 -25 22 -32 0 -8 -11 -1 -25 15 -35 41 -34
50 3 17z m7138 -16 c4 -14 4 -29 0 -32 -3 -4 -6 3 -6 15 0 14 -6 22 -16 22
-13 0 -15 -9 -12 -45 2 -25 0 -45 -4 -45 -5 0 -8 9 -8 19 0 17 -4 18 -36 11
-27 -6 -41 -5 -50 5 -17 16 -5 27 51 46 22 7 44 17 50 21 16 14 24 9 31 -17z
m11 -67 c-3 -8 -6 -5 -6 6 -1 11 2 17 5 13 3 -3 4 -12 1 -19z m-7097 -35 c-1
-14 -4 -13 -15 7 -19 33 -19 45 0 26 8 -8 15 -23 15 -33z m7 -55 c-3 -8 -6 -5
-6 6 -1 11 2 17 5 13 3 -3 4 -12 1 -19z m4553 -143 c0 -8 7 -15 15 -15 11 0
15 -11 15 -39 0 -45 -4 -47 -65 -43 l-45 4 0 54 0 54 40 0 c29 0 40 -4 40 -15z
m-4620 -38 c-21 -20 -27 -23 -15 -7 35 43 40 48 44 44 3 -3 -10 -19 -29 -37z
m2460 -282 c0 -11 13 -15 54 -15 43 0 56 -4 67 -20 8 -11 25 -23 38 -25 14 -3
29 -11 33 -20 7 -11 26 -15 68 -15 47 0 60 -3 60 -15 0 -11 12 -15 49 -15 39
0 56 -5 76 -24 15 -14 21 -26 14 -28 -7 -2 -6 -8 5 -17 14 -11 16 -11 16 3 0
19 16 21 27 4 16 -26 46 -42 86 -47 34 -5 43 -10 45 -28 2 -12 12 -25 23 -28
10 -4 24 -15 30 -26 6 -12 17 -18 25 -15 9 3 25 -4 37 -18 19 -20 55 -31 120
-35 4 -1 7 -8 7 -16 0 -8 6 -15 14 -15 7 0 20 -10 28 -22 11 -16 28 -23 64
-27 43 -5 49 -9 47 -28 -2 -18 4 -23 33 -29 48 -9 207 5 215 18 4 6 16 8 28 5
14 -3 21 0 21 9 0 12 19 14 107 12 101 -3 108 -4 119 -26 6 -12 19 -29 29 -36
13 -9 16 -19 10 -32 -4 -10 -7 -34 -6 -51 2 -23 -2 -33 -12 -33 -20 0 -88 -60
-81 -72 3 -4 -9 -8 -25 -8 -19 0 -31 -5 -31 -13 0 -14 -60 -47 -85 -47 -8 0
-15 -4 -15 -10 0 -5 -5 -10 -11 -10 -7 0 -24 -13 -39 -28 -26 -27 -31 -29 -99
-24 -60 3 -71 1 -71 -12 0 -12 -10 -16 -40 -16 -29 0 -40 -4 -40 -15 0 -12
-16 -15 -80 -15 -47 0 -80 -4 -80 -10 0 -5 -18 -10 -40 -10 -29 0 -40 -4 -40
-15 0 -11 -11 -15 -40 -15 -29 0 -40 -4 -40 -15 0 -11 -11 -15 -39 -15 -25 0
-41 -5 -45 -15 -3 -9 -19 -15 -41 -15 -31 0 -35 -3 -35 -25 0 -22 -4 -25 -39
-25 -24 0 -41 -5 -44 -14 -3 -8 -17 -13 -37 -11 -20 2 -34 -3 -37 -11 -3 -9
-20 -14 -44 -14 -28 0 -39 -4 -39 -15 0 -11 -11 -15 -40 -15 -22 0 -40 -4 -40
-10 0 -6 -47 -10 -120 -10 -100 0 -120 -2 -120 -15 0 -13 -24 -15 -160 -15
-136 0 -160 2 -160 15 0 13 -24 15 -160 15 -100 0 -160 4 -160 10 0 6 -47 10
-120 10 -100 0 -120 3 -120 15 0 12 -20 15 -119 15 -107 0 -119 2 -124 19 -3
13 -13 18 -33 16 -29 -2 -59 14 -104 57 -13 12 -26 22 -28 20 -2 -2 -19 10
-38 27 -27 24 -34 38 -34 66 l0 35 -55 0 -55 0 0 120 c0 100 3 120 15 120 12
0 15 13 15 55 l0 55 80 0 c64 0 80 -3 80 -15 0 -12 16 -15 80 -15 64 0 80 -3
80 -15 0 -12 20 -15 120 -15 73 0 120 -4 120 -10 0 -6 47 -10 120 -10 73 0
120 4 120 10 0 6 18 10 40 10 29 0 40 4 40 15 0 8 8 15 18 15 9 0 23 9 30 20
7 11 17 20 22 20 6 0 10 -9 10 -20 0 -11 7 -20 15 -20 11 0 15 13 15 53 0 44
4 58 25 77 19 18 25 34 25 67 0 24 5 43 10 43 6 0 10 18 10 39 0 22 4 41 9 43
6 2 12 17 15 35 4 17 23 50 43 73 21 23 38 46 38 50 0 18 43 47 79 54 23 4 36
12 33 19 -3 8 8 11 39 8 35 -2 44 0 44 13 0 12 10 16 40 16 29 0 40 -4 40 -15z
m5190 -327 c0 -9 3 -8 10 2 7 12 12 12 22 2 9 -9 9 -12 -5 -12 -9 0 -17 -5
-17 -11 0 -6 -7 -4 -15 5 -17 17 -19 26 -5 26 6 0 10 -6 10 -12z m-1907 -318
c-1 -23 -10 -40 -30 -56 -33 -27 -46 -29 -63 -9 -15 18 2 70 32 97 30 27 63 9
61 -32z m2585 -21 c61 -14 95 -48 50 -50 l-23 0 21 -11 c29 -13 54 -60 37 -65
-19 -7 -16 -54 5 -70 15 -13 12 -14 -28 -8 -68 9 -103 34 -114 80 -6 27 -5 44
3 58 10 15 9 21 -2 30 -8 7 -17 20 -20 30 -7 20 7 21 71 6z m-3001 -15 c-3 -3
-12 -4 -19 -1 -8 3 -5 6 6 6 11 1 17 -2 13 -5z m2603 -77 c25 -41 -15 -75
-114 -97 -60 -13 -70 -6 -33 26 15 13 30 38 34 55 3 18 13 40 21 50 14 16 17
16 47 1 18 -10 38 -25 45 -35z m495 -169 c6 -6 -1 -7 -20 -2 -39 9 -75 22 -75
28 0 7 84 -16 95 -26z"/>
<path d="M9120 7340 c-9 -17 -8 -20 13 -20 29 0 37 7 30 26 -8 20 -31 17 -43
-6z"/>
<path d="M9155 7244 c-14 -10 -16 -17 -8 -25 15 -15 46 -7 49 13 3 23 -18 29
-41 12z"/>
<path d="M8245 6810 c3 -5 8 -10 11 -10 2 0 4 5 4 10 0 6 -5 10 -11 10 -5 0
-7 -4 -4 -10z"/>
<path d="M9981 5984 c0 -11 3 -14 6 -6 3 7 2 16 -1 19 -3 4 -6 -2 -5 -13z"/>
<path d="M10960 5585 c0 -10 10 -15 30 -15 35 0 40 15 8 24 -34 9 -38 8 -38
-9z"/>
<path d="M11038 5573 c7 -3 16 -2 19 1 4 3 -2 6 -13 5 -11 0 -14 -3 -6 -6z"/>
<path d="M10992 5547 c9 -7 18 -26 20 -42 1 -16 8 -30 15 -32 11 -4 9 21 -4
57 -4 8 -5 18 -5 23 1 4 -8 7 -20 7 -21 -1 -21 -2 -6 -13z"/>
<path d="M11042 5419 c2 -7 10 -15 17 -17 8 -3 12 1 9 9 -2 7 -10 15 -17 17
-8 3 -12 -1 -9 -9z"/>
<path d="M11094 5348 c-9 -15 -7 -79 4 -90 4 -4 6 8 4 29 -4 31 -2 35 13 29
13 -5 16 -2 11 10 -3 8 -6 20 -6 25 0 13 -17 11 -26 -3z"/>
<path d="M10820 5256 c0 -9 7 -16 16 -16 17 0 14 22 -4 28 -7 2 -12 -3 -12
-12z"/>
<path d="M10873 5215 c12 -25 27 -33 27 -14 0 10 -24 39 -33 39 -3 0 0 -11 6
-25z"/>
<path d="M4850 5410 c0 -5 7 -10 15 -10 8 0 15 5 15 10 0 6 -7 10 -15 10 -8 0
-15 -4 -15 -10z"/>
<path d="M4896 5412 c-7 -12 5 -52 15 -52 5 0 9 14 9 30 0 28 -13 40 -24 22z"/>
<path d="M4857 5383 c-12 -11 -8 -23 8 -23 8 0 15 7 15 15 0 16 -12 20 -23 8z"/>
<path d="M5900 5350 c0 -5 5 -10 10 -10 6 0 10 5 10 10 0 6 -4 10 -10 10 -5 0
-10 -4 -10 -10z"/>
<path d="M6018 5343 c12 -2 32 -2 45 0 12 2 2 4 -23 4 -25 0 -35 -2 -22 -4z"/>
<path d="M5640 4937 c0 -7 8 -23 17 -36 16 -23 17 -23 23 -5 4 10 5 27 2 36
-5 20 -42 25 -42 5z"/>
<path d="M4877 4923 c-4 -3 -7 -19 -7 -35 0 -24 4 -28 30 -28 33 0 35 5 20 44
-9 25 -29 34 -43 19z"/>
<path d="M5138 4013 c7 -3 16 -2 19 1 4 3 -2 6 -13 5 -11 0 -14 -3 -6 -6z"/>
<path d="M5058 4003 c12 -2 32 -2 45 0 12 2 2 4 -23 4 -25 0 -35 -2 -22 -4z"/>
<path d="M5578 4033 c7 -3 16 -2 19 1 4 3 -2 6 -13 5 -11 0 -14 -3 -6 -6z"/>
<path d="M4880 3895 c0 -23 4 -26 28 -23 19 2 27 9 27 23 0 14 -8 21 -27 23
-24 3 -28 0 -28 -23z m40 -5 c0 -5 -4 -10 -10 -10 -5 0 -10 5 -10 10 0 6 5 10
10 10 6 0 10 -4 10 -10z"/>
<path d="M7305 3490 c-3 -5 1 -10 9 -10 9 0 16 5 16 10 0 6 -4 10 -9 10 -6 0
-13 -4 -16 -10z"/>
<path d="M6145 1150 c3 -5 8 -10 11 -10 2 0 4 5 4 10 0 6 -5 10 -11 10 -5 0
-7 -4 -4 -10z"/>
<path d="M3840 8590 c0 -5 5 -10 10 -10 6 0 10 5 10 10 0 6 -4 10 -10 10 -5 0
-10 -4 -10 -10z"/>
<path d="M9000 8560 c0 -33 3 -40 20 -40 17 0 20 -7 20 -40 0 -22 -5 -40 -11
-40 -24 0 24 -32 56 -37 31 -5 37 -3 42 16 5 20 11 21 117 21 101 0 113 2 111
18 -1 22 -44 72 -62 72 -8 0 -13 13 -13 35 l0 35 -140 0 -140 0 0 -40z m315
-50 c3 -6 -1 -7 -9 -4 -18 7 -21 14 -7 14 6 0 13 -4 16 -10z"/>
<path d="M10320 8560 c0 -39 1 -40 34 -40 19 0 37 -3 40 -8 2 -4 -13 -6 -35
-4 -39 4 -39 4 -39 -32 0 -35 1 -36 40 -36 33 0 40 -3 40 -20 0 -18 5 -19 48
-14 119 13 112 9 112 64 0 28 5 50 10 50 6 0 10 -15 10 -34 0 -19 4 -37 9 -40
12 -8 19 46 13 105 l-5 49 -138 0 -139 0 0 -40z"/>
<path d="M11800 8400 c0 -26 5 -40 13 -40 9 0 11 12 9 40 -2 22 -8 40 -13 40
-5 0 -9 -18 -9 -40z"/>
<path d="M9288 8369 c-8 -6 4 -9 31 -9 24 0 41 3 37 7 -10 10 -53 11 -68 2z"/>
<path d="M9180 8350 c0 -5 5 -10 10 -10 6 0 10 5 10 10 0 6 -4 10 -10 10 -5 0
-10 -4 -10 -10z"/>
<path d="M11715 8250 c-33 -41 -44 -49 -65 -45 -14 2 -77 6 -140 9 -63 2 -141
7 -172 11 -50 7 -58 6 -58 -9 0 -9 7 -16 15 -16 12 0 15 -16 15 -80 0 -79 0
-80 25 -80 23 0 25 -4 25 -40 0 -35 -3 -40 -22 -40 -22 -1 -23 -1 -4 -15 11
-8 39 -15 63 -15 39 0 43 -2 43 -24 0 -21 6 -24 40 -28 l40 -4 0 43 0 43 40 0
40 0 0 40 0 40 40 0 40 0 0 40 0 40 40 0 40 0 0 40 0 40 40 0 40 0 0 40 c0 40
0 40 -39 40 -22 0 -41 4 -43 10 -1 5 -21 -13 -43 -40z"/>
<path d="M9268 8224 c-2 -25 0 -48 4 -50 5 -3 8 18 8 45 0 64 -7 66 -12 5z"/>
<path d="M11398 7873 c7 -3 16 -2 19 1 4 3 -2 6 -13 5 -11 0 -14 -3 -6 -6z"/>
<path d="M11468 7838 c23 -23 39 -20 29 7 -4 8 -17 15 -29 15 l-22 0 22 -22z"/>
<path d="M9630 7790 c20 -13 50 -13 50 0 0 6 -15 10 -32 10 -25 0 -29 -3 -18
-10z"/>
<path d="M5520 7720 l0 -70 35 0 35 0 0 70 0 70 -35 0 -35 0 0 -70z"/>
<path d="M5360 7365 c0 -33 2 -35 35 -35 33 0 35 2 35 35 0 33 -2 35 -35 35
-33 0 -35 -2 -35 -35z"/>
<path d="M3600 7100 c0 -13 7 -20 20 -20 23 0 26 10 8 28 -18 18 -28 15 -28
-8z"/>
<path d="M3680 7020 c0 -14 7 -20 22 -20 20 0 21 1 3 20 -10 11 -20 20 -22 20
-1 0 -3 -9 -3 -20z"/>
<path d="M4720 6885 c0 -33 2 -35 35 -35 33 0 35 2 35 35 0 33 -2 35 -35 35
-33 0 -35 -2 -35 -35z"/>
<path d="M10711 6634 c0 -11 3 -14 6 -6 3 7 2 16 -1 19 -3 4 -6 -2 -5 -13z"/>
<path d="M10628 6613 c6 -2 18 -2 25 0 6 3 1 5 -13 5 -14 0 -19 -2 -12 -5z"/>
<path d="M3585 6500 c-3 -5 -1 -10 4 -10 6 0 11 5 11 10 0 6 -2 10 -4 10 -3 0
-8 -4 -11 -10z"/>
</g>
</svg>
